<svg xmlns="http://www.w3.org/2000/svg" viewBox="0 0 24 24">
  <rect width="24" height="24" fill="#10b981" rx="2"/>
  <path d="M14.531 12.469 6.619 6.619a1 1 0 0 0-1.897.516v4.911a1 1 0 0 0 .293.708l5.657 5.657a1 1 0 0 0 1.415 0l4.239-4.239a1 1 0 0 0 0-1.414Z" fill="none" stroke="#000000" stroke-width="2" stroke-linecap="round" stroke-linejoin="round"/>
  <path d="M18.707 5.293a1 1 0 0 0-1.414 0l-4.239 4.239a1 1 0 0 0 0 1.414l5.657 5.657a1 1 0 0 0 .707.293h4.911a1 1 0 0 0 .516-1.897Z" fill="none" stroke="#000000" stroke-width="2" stroke-linecap="round" stroke-linejoin="round"/>
</svg>

